<?xml version="1.0" encoding="utf-8"?>
<!-- Generator: Adobe Illustrator 16.0.0, SVG Export Plug-In . SVG Version: 6.00 Build 0)  -->
<!DOCTYPE svg PUBLIC "-//W3C//DTD SVG 1.1//EN" "http://www.w3.org/Graphics/SVG/1.1/DTD/svg11.dtd">
<svg version="1.1" id="Layer_1" xmlns="http://www.w3.org/2000/svg" xmlns:xlink="http://www.w3.org/1999/xlink" x="0px" y="0px"
	 width="780px" height="420px" viewBox="0 0 780 420" enable-background="new 0 0 780 420" xml:space="preserve">
<g id="Layer_1_1_">
</g>
<path fill="#FFFFFF" d="M62,72H51v4l-6-5l6-5v4h11V72z M5,70h11v-4l6,5l-6,5v-4H5V70z"/>
<path fill="#3694D1" d="M51,106v4h11v2H51v4l-6-5L51,106z M16,106l6,5l-6,5v-4H5v-2h11V106z"/>
<rect x="5" y="30" width="11" height="2"/>
<polygon points="22,31 16,36 16,26 "/>
<polygon points="62,30 62,32 51,32 51,36 45,31 51,26 51,30 "/>
<path d="M171,32h11v-2h-11v-4l-6,5l6,5V32z M209,61H89V0h120V61z M115,32h11v4l6-5l-6-5v4h-11V32z"/>
<path fill="#FFFFFF" d="M171,86l-6,5l6,5v-4h11v-2h-11V86z M89,61h120v60H89V61z M126,90h-11v2h11v4l6-5l-6-5V90z"/>
<path fill="#3694D1" d="M89,121h120v59H89V121z M115,150v2h11v4l6-5l-6-5v4H115z M182,152v-2h-11v-4l-6,5l6,5v-4H182z"/>
<polygon points="36,145 36,165 40,165 35,171 30,165 34,165 34,145 "/>
<polygon fill="#FFFFFF" points="36,284.05 36,304.05 40,304.05 35,310.05 30,304.05 34,304.05 34,284.05 "/>
<path fill="#FFFFFF" d="M70,260H0v-70h70V260z M34,213v20h-4l5,6l5-6h-4v-20H34z"/>
<g>
	<path fill="#FFFFFF" d="M120.5,220.05c0.167-0.032,0.333-0.05,0.5-0.05h3.05v3.45h-2.25c-0.2,0-0.416,0.116-0.648,0.35
		c-0.135,0.167-0.2,0.351-0.2,0.55v2.2h3.1c-0.1,1.267-0.217,2.417-0.35,3.45h-2.75v10h-4v-10H115v-3.45h1.95V223.9
		c0-0.867,0.184-1.584,0.55-2.15c0.566-0.934,1.483-1.5,2.75-1.7C120.316,220.05,120.4,220.05,120.5,220.05z"/>
</g>
<g>
	<path fill="#FFFFFF" d="M168,222.35c0.1,0.034,0.15,0.102,0.15,0.2c0.666-0.133,1.315-0.366,1.948-0.7
		c0.302-0.065,0.584-0.199,0.852-0.398c-0.134,0.467-0.4,0.934-0.8,1.398L170.1,222.9c-0.232,0.433-0.583,0.732-1.05,0.898
		c0.367,0,0.717-0.05,1.05-0.148c0.5-0.067,1-0.217,1.5-0.45c-0.433,0.6-0.933,1.149-1.5,1.649c-0.198,0.267-0.433,0.5-0.698,0.699
		c0,0.135,0,0.334,0,0.602c0,1.533-0.302,3.065-0.9,4.6c-0.134,0.4-0.3,0.783-0.5,1.15c-0.5,1.1-1.116,2.082-1.85,2.949
		c-0.802,0.866-1.617,1.616-2.45,2.25c-0.467,0.301-1,0.584-1.602,0.851c-1.666,0.733-3.448,1.1-5.35,1.1
		c-1.233,0-2.434-0.166-3.6-0.5c-1.135-0.333-2.185-0.815-3.15-1.45c0.267,0.034,0.566,0.051,0.9,0.051
		c0.398,0,0.782-0.017,1.148-0.051c0.634-0.033,1.268-0.216,1.9-0.55c0.865-0.267,1.7-0.733,2.5-1.399c-0.9,0-1.733-0.334-2.5-1
		c-0.834-0.467-1.367-1.199-1.602-2.199c0.233,0.066,0.534,0.1,0.9,0.1c0.333,0,0.7-0.066,1.1-0.199
		c-1.033-0.134-1.883-0.617-2.55-1.449c-0.633-0.9-0.95-1.9-0.95-3v-0.051c0.602,0.467,1.25,0.699,1.95,0.699
		c-0.633-0.467-1.116-1.033-1.45-1.699c-0.3-0.634-0.449-1.351-0.449-2.149c0-0.867,0.184-1.65,0.551-2.351
		c1.1,1.467,2.416,2.601,3.949,3.399c1.666,0.833,3.366,1.333,5.101,1.5c-0.066-0.399-0.101-0.783-0.101-1.149
		c0-1.233,0.449-2.301,1.351-3.199c0.866-0.9,1.899-1.352,3.1-1.352c0.635,0,1.25,0.135,1.852,0.4
		C167.167,221.684,167.6,221.982,168,222.35z"/>
</g>
<g>
	<path d="M120.5,270.05c0.167-0.032,0.333-0.05,0.5-0.05h3.05v3.45h-2.25c-0.2,0-0.416,0.116-0.648,0.35
		c-0.135,0.167-0.2,0.351-0.2,0.55v2.2h3.1c-0.1,1.267-0.217,2.417-0.35,3.45h-2.75v10h-4v-10H115v-3.45h1.95V273.9
		c0-0.867,0.184-1.584,0.55-2.15c0.566-0.934,1.483-1.5,2.75-1.7C120.316,270.05,120.4,270.05,120.5,270.05z"/>
</g>
<g>
	<path d="M164.85,271.05c0.635,0,1.25,0.134,1.852,0.4c0.467,0.233,0.898,0.532,1.3,0.899c0.1,0.033,0.15,0.101,0.15,0.199
		c0.666-0.133,1.315-0.365,1.948-0.699c0.302-0.066,0.584-0.199,0.852-0.399c-0.134,0.467-0.4,0.934-0.8,1.399L170.1,272.9
		c-0.232,0.433-0.583,0.732-1.05,0.898c0.367,0,0.717-0.05,1.05-0.148c0.5-0.067,1-0.217,1.5-0.45c-0.433,0.6-0.933,1.149-1.5,1.649
		c-0.198,0.267-0.433,0.5-0.698,0.699c0,0.135,0,0.334,0,0.602c0,1.533-0.302,3.065-0.9,4.6c-0.134,0.4-0.3,0.783-0.5,1.15
		c-0.5,1.1-1.116,2.082-1.85,2.949c-0.802,0.866-1.617,1.616-2.45,2.25c-0.467,0.301-1,0.584-1.602,0.851
		c-1.666,0.733-3.448,1.1-5.35,1.1c-1.233,0-2.434-0.166-3.6-0.5c-1.135-0.333-2.185-0.815-3.15-1.45
		c0.267,0.034,0.566,0.051,0.9,0.051c0.398,0,0.782-0.017,1.148-0.051c0.634-0.033,1.268-0.216,1.9-0.55
		c0.865-0.267,1.7-0.733,2.5-1.399c-0.9,0-1.733-0.334-2.5-1c-0.834-0.467-1.367-1.199-1.602-2.199c0.233,0.066,0.534,0.1,0.9,0.1
		c0.333,0,0.7-0.066,1.1-0.199c-1.033-0.134-1.883-0.617-2.55-1.449c-0.633-0.9-0.95-1.9-0.95-3v-0.051
		c0.602,0.467,1.25,0.699,1.95,0.699c-0.633-0.467-1.116-1.033-1.45-1.699c-0.3-0.634-0.449-1.351-0.449-2.149
		c0-0.867,0.184-1.65,0.551-2.351c1.1,1.467,2.416,2.601,3.949,3.399c1.666,0.833,3.366,1.333,5.101,1.5
		c-0.066-0.399-0.101-0.783-0.101-1.149c0-1.233,0.449-2.301,1.351-3.199C162.616,271.5,163.65,271.05,164.85,271.05z"/>
</g>
<g>
	<path fill="#3694D1" d="M151.45,311.85c1.1,1.467,2.416,2.602,3.95,3.4c1.666,0.833,3.365,1.333,5.1,1.5
		c-0.066-0.4-0.1-0.783-0.1-1.15c0-1.232,0.448-2.3,1.35-3.199c0.866-0.899,1.9-1.351,3.1-1.351c0.635,0,1.25,0.134,1.852,0.4
		c0.467,0.233,0.898,0.532,1.3,0.899c0.1,0.033,0.15,0.101,0.15,0.199c0.666-0.133,1.315-0.365,1.948-0.699
		c0.302-0.066,0.584-0.199,0.852-0.399c-0.134,0.467-0.4,0.934-0.8,1.399L170.1,312.9c-0.232,0.433-0.583,0.732-1.05,0.898
		c0.367,0,0.717-0.05,1.05-0.148c0.5-0.067,1-0.217,1.5-0.45c-0.433,0.6-0.933,1.149-1.5,1.649c-0.198,0.267-0.433,0.5-0.698,0.699
		c0,0.135,0,0.334,0,0.602c0,1.533-0.302,3.065-0.9,4.6c-0.134,0.4-0.3,0.783-0.5,1.15c-0.5,1.1-1.116,2.082-1.85,2.949
		c-0.802,0.866-1.617,1.616-2.45,2.25c-0.467,0.301-1,0.584-1.602,0.851c-1.666,0.733-3.448,1.1-5.35,1.1
		c-1.233,0-2.434-0.166-3.6-0.5c-1.135-0.333-2.185-0.815-3.15-1.45c0.267,0.034,0.566,0.051,0.9,0.051
		c0.398,0,0.782-0.017,1.148-0.051c0.634-0.033,1.268-0.216,1.9-0.55c0.865-0.267,1.7-0.733,2.5-1.399c-0.9,0-1.733-0.334-2.5-1
		c-0.834-0.467-1.367-1.199-1.602-2.199c0.233,0.066,0.534,0.1,0.9,0.1c0.333,0,0.7-0.066,1.1-0.199
		c-1.033-0.134-1.883-0.617-2.55-1.449c-0.633-0.9-0.95-1.9-0.95-3v-0.051c0.602,0.467,1.25,0.699,1.95,0.699
		c-0.633-0.467-1.116-1.033-1.45-1.699c-0.3-0.634-0.449-1.351-0.449-2.149C150.9,313.333,151.083,312.55,151.45,311.85z
		 M116.95,320H115v-3.45h1.95V313.9c0-0.867,0.184-1.584,0.55-2.15c0.566-0.934,1.483-1.5,2.75-1.7c0.066,0,0.15,0,0.25,0
		c0.167-0.032,0.333-0.05,0.5-0.05h3.05v3.45h-2.25c-0.2,0-0.416,0.116-0.648,0.35c-0.135,0.167-0.2,0.351-0.2,0.55v2.2h3.1
		c-0.1,1.267-0.217,2.417-0.35,3.45h-2.75v10h-4L116.95,320L116.95,320z"/>
</g>
</svg>
