<?xml version="1.0" encoding="utf-8"?>
<!-- Generator: Adobe Illustrator 18.1.1, SVG Export Plug-In . SVG Version: 6.00 Build 0)  -->
<!DOCTYPE svg PUBLIC "-//W3C//DTD SVG 1.1//EN" "http://www.w3.org/Graphics/SVG/1.1/DTD/svg11.dtd">
<svg version="1.1" xmlns="http://www.w3.org/2000/svg" xmlns:xlink="http://www.w3.org/1999/xlink" x="0px" y="0px"
	 viewBox="0 0 1368 936" enable-background="new 0 0 1368 936" xml:space="preserve">
<g id="Layer_1">
</g>
<g id="Layer_2">
</g>
<g id="Layer_3">
</g>
<g id="Layer_4">
	<path fill="#FFFFFF" d="M1229.4,539.6l1.7-5.6c-4.7,7.8-23.5,7.1-23.5,7.1c-12-0.4-16.9-12.2-16.9-12.2
		c-3.2,14.3-24.9,22.7-24.9,22.7c-10.8,26.5,12.8,44,12.8,44c-0.3-15.5,21.9-22.3,21.9-22.3c-3.2,11,6.4,35.7,6.4,35.7
		c3.3,13.3-5.4,13.8-5.4,13.8c-26.9,1.8-32-32.8-32-32.8l-4.2-0.9c2.4,3.3-23.7,31.9-23.7,31.9l15.2-11.4
		c7.1-4.7,14.8,10.4,14.8,10.4c12.6,19.2,36.5,8.1,36.5,8.1c21.5-10.8,14.9-31.6,14.9-31.6l-7.4-25.7
		C1210.2,550.8,1229.4,539.6,1229.4,539.6z M1198,562.8l-10.5,8.5c0,0-2.7,1.8-4.3-2.2c0,0-4.1-8.5-2-15.4c0,0,1.1-3.2,6.4-1.9
		l10.5,6.2C1198,558,1200.8,560.2,1198,562.8z"/>
	<path fill="#FFFFFF" d="M1210.7,424c0,0,3.4-8.7,37.4-27.3c0,0,16.8-8.9,21.9-12.2l-3.7,23.8l27.2-23.8c0,0-0.9,16.4,16.7,19.8
		l-33.7,31.5c0,0,3.6-9.9-1.5-13.9c0,0-6.5-2.2-7.7,11.4l-1.5,21c0,0-1.5,9.1,20.7,10.2l-17,28.1c0,0,1.5-4.9-3.4-10.4
		c0,0-3.7-7.9-21.9-5.9c0,0-7.7,0.2-14.8,0.9h-10.5l8.6-4.6c0,0,9.3-4,9-9.9l0.9-40.8c0,0,0-6.8-8-4.6L1210.7,424z"/>
	<path fill="#FFFFFF" d="M1196.8,463.5c-3.5,1.4-4.9,0-4.9,0l-1.6-35.9c6-5.3,14.1-16.7,14.1-16.7l2.1-4.1
		c-8.1,7.3-25.3,5.5-25.3,5.5c-22-3.5-26.2-17.2-26.2-17.2c-14.2,19.8-38.3,26.2-38.3,26.2c-12.7,39.1,13.4,69.5,13.4,69.5
		c8.6-23.6,36-35.2,36-35.2l4.5,31.3l47.4-27.3L1196.8,463.5z M1165.8,444.3c-11.6,4.9-22.5,13-22.5,13
		c-10.9-13.9-5.1-33.7-5.1-33.7c7.4,6.1,27.5,8.7,27.5,8.7V444.3z"/>
	<path fill="#FFFFFF" d="M486.4,534.9c0,0-1.5-7.1,0-8.6c0,0,2.3-2.6,3.7-2.3l5.9,4.6C496,528.5,491.1,533.3,486.4,534.9z"/>
	<path fill="#FFFFFF" d="M276.4,547.6c0,0,12.6-2.4,17.2-8.2c0,0,2.9-4.8,3.1-9.6c0,0,4.5,13.8,18.2,14.5l3.2-0.1l2.2-0.1l-1.5,1.3
		c0,0-12,10.6-21.1,8.7c0,0-6.3-0.5-9.5-5.2c0,0-2.6,5.7-0.6,13.6c0,0,2.9,15.8,15.5,15.7c0,0,16.5-2.9,16.6-12l0,0
		c0,0,2.1,5.8-0.9,10.2c0,0-4.2,8.3-20.3,13.2c0,0-5.6,1.9-7.3,4.6c0,0-22.6-20.9-20.7-30.3C270.3,564.1,272.5,554.4,276.4,547.6z"
		/>
	<path fill="#FFFFFF" d="M331.6,553.9c0,0,1.9-4.9,21.2-15.5c0,0,9.6-5.1,12.4-6.9l-2.1,13.5l15.4-13.5c0,0-0.5,9.3,9.5,11.2
		l-19.1,17.9c0,0,2-5.6-0.9-7.9c0,0-3.7-1.2-4.4,6.5l-0.9,11.9c0,0-0.9,5.2,11.7,5.8l-9.6,16c0,0,0.8-2.8-1.9-5.9
		c0,0-2.1-4.5-12.4-3.4c0,0-4.4,0.1-8.4,0.5h-6l4.9-2.6c0,0,5.3-2.3,5.1-5.6l0.5-23.1c0,0,0-3.9-4.6-2.6L331.6,553.9z"/>
	<path fill="#FFFFFF" d="M204.1,588.2l14.4-8.6c0,0,3.9-2.7,6.5,1.9c0,0,2.1,7.4,11.1,4.9c0,0,2-0.3,1.9-2.7l0-11.4
		c0,0-20.4,6.7-28.5-3.2c0,0-12-19.2,14.8-28.9c0,0,10.4-4.9,20.4,2.8c0,0,2.3,2.9,9.7,2.9l4.9-0.2c0,0-12,3.9-14.9,10.7
		c0,0-4.2,1.2-6.3-1.8c0,0-5.9-8.7-14.4-5.3c0,0-7.6,4,0.1,10c0,0,6.9,6.2,20.8,0c0,0,4.6-2.1,8-0.4c0,0,2.2,0.7,1.9,4.7l-1.2,20.2
		c0,0,0.8,2.2-5.6,4.6c0,0-29.5,13.4-34.5,4.2c0,0-1.5-5-10.3-2.3C203.1,590.1,199.3,591.8,204.1,588.2z"/>
	<path fill="#FFFFFF" d="M455.1,571.3c-6.2-6.2-21.2-2.5-21.2-2.5c-5.3,1.2-8.6-7.4-8.6-7.4c5.6-6.2,28-20.8,28-20.8
		c-8.3-0.1-13.8-3.7-13.8-3.7c-7.1-3.6-3.4-12-3.4-12c-0.8,3-21.9,10.4-21.9,10.4c-13.4,4.3-13.4,24.6-13.4,24.6
		c-4.9,8.4-3.7,7.4-3.7,7.4c4.9-0.7,7.6,2.1,7.6,2.1c2.8,3.6,16.4,18.8,16.4,18.8c5.8-4.2,22.9-13.2,22.9-13.2
		c7.2-4.7,12,3.3,12,3.3C457.9,575.2,455.1,571.3,455.1,571.3z M426.8,539.8c0,0,1.3,6.4,6.1,6.4l-10.5,7.9
		C422.4,554.2,413.4,546.2,426.8,539.8z"/>
	<path fill="#FFFFFF" d="M526,531.3c0,0,10.5-0.9,10.9,4.5c0,0,7.1,28.1,2.9,36.9c0,0-4.8,8.9-1.7,6.9c3.1-2,23.8-17.2,23.8-17.2
		s-4-14.4-0.6-20.1l13.3-7.7c0,0,5.1,22.9,1.5,37.2c0,0-2,5.4-2.9,7.3c0,0,0.3-0.2,1-0.6c4.4-2.6,23-13.4,32.4-18.9l2.8-1.8
		c0,0-6.5,2.9-9.3-1.4c0,0-4-5.1-4.6-15.6l-0.6-27.3L558.5,534l-5.6-19.5c0,0-3.7,6.9-12,10.3"/>
	<path fill="#FFFFFF" d="M792.3,545.6c0,0,1.9-4.9,21.2-15.5c0,0,9.5-5.1,12.4-6.9l-2.1,13.5l15.4-13.5c0,0-0.5,9.3,9.5,11.2
		l-19.1,17.9c0,0,2-5.6-0.9-7.9c0,0-3.7-1.2-4.4,6.5l-0.9,11.9c0,0-0.9,5.2,11.7,5.8l-9.6,16c0,0,0.8-2.8-1.9-5.9
		c0,0-2.1-4.5-12.4-3.4c0,0-4.4,0.1-8.4,0.5h-6l4.9-2.6c0,0,5.3-2.3,5.1-5.6l0.5-23.1c0,0,0-3.9-4.6-2.6L792.3,545.6z"/>
	<path fill="#FFFFFF" d="M895.6,547.9c0,0,10.5-0.9,10.9,4.5c0,0,7.1,28.1,2.9,36.9c0,0-3.2,8-0.2,6c3.1-2,22.2-16.4,22.2-16.4
		s-4-14.4-0.6-20.1l13.3-7.7c0,0,5.1,22.9,1.5,37.2c0,0-2,5.4-2.9,7.3c0,0,22.7-13.1,33.3-19.5l2.8-1.8c0,0-6.5,2.9-9.3-1.4
		c0,0-4-5.1-4.6-15.6l-0.6-27.3l-36.3,20.5l-5.6-19.5c0,0-3.7,6.9-12,10.3"/>
	<path fill="#FFFFFF" d="M1071.6,557.3c0,0,10.5-0.9,10.9,4.5c0,0,7.1,28.1,2.9,36.9c0,0-3.2,8-0.2,6c3.1-2,22.2-16.4,22.2-16.4
		s-4-14.4-0.6-20.1l13.3-7.7c0,0,5.1,22.8,1.5,37.2c0,0-2,5.4-2.9,7.3c0,0,22.7-13.1,33.4-19.5l2.8-1.8c0,0-6.5,2.9-9.3-1.4
		c0,0-4-5.1-4.6-15.6l-0.6-27.3l-36.3,20.5l-5.6-19.4c0,0-3.7,6.9-12,10.3"/>
	<g>
		<path fill="#FFFFFF" d="M1027,569.4c0,0,30.5-16.3,30.8-18.8V590c0,0-0.2,9.4,13.3-1.9l2.8-2.6l-2.2,9c0,0-21.2,5.6-28,28.4
			l-3.5-1.4l0.4-46.8c0,0-0.9-10.1-13.6-1.9V569.4z"/>
		<path fill="#FFFFFF" d="M1034.4,536.9c0,0,9.9,2.5,18.8-7.1c0,0-0.2,14.2,6.6,13.7c0,0-12.7-1.7-21.5,10.3
			C1038.4,553.8,1041.4,545.7,1034.4,536.9z"/>
	</g>
	<g>
		<path fill="#FFFFFF" d="M850.6,555c0,0,30.8-17.9,30.8-18.8v39.4c0,0-0.3,9.4,13.3-1.8l2.8-2.6l-2.2,8.9c0,0-21.2,5.6-28,28.4
			l-3.5-1.4l0.2-47.9c0,0-0.7-9-13.4-0.7V555z"/>
		<path fill="#FFFFFF" d="M858.1,522.5c0,0,9.9,2.5,18.8-7.1c0,0-0.4,12.3,6.6,13.7c0,0-12.7-1.7-21.5,10.3
			C862,539.4,865,531.3,858.1,522.5z"/>
	</g>
	<path fill="#FFFFFF" d="M989.4,535.5c0,0,13.6-1.6,22.9-15.3v2.1c0,0-9.2,19.3-1.9,21.6c0,0,10,3.9,17.5-5.4
		c0,0-0.9,15.4-14.1,15.8c0,0-5.8-1-6.1,3.9l0.9,19.5c0,0-0.4,10.5,5.5,4.5l10.1-1l-35.5,28.1c0,0,5.6-5.8,5.3-13.5l-0.2-36.8
		c0,0,0.8-5-6.6-5.7l-12.7-2.5c0,0,15.5-5.9,18.3-6.6C992.9,544,993.4,537.8,989.4,535.5z"/>
	<path fill="#FFFFFF" d="M780.7,507.2c-8.8-3.9-25.9,8.1-25.9,8.1c-6,5.8-5.1,2.7-5.1,2.7l-0.3-13.9l-41.8,22.4l20.1-2
		c3.1-0.5,2.3,22.1,2.3,22.1c0.2,1.7-0.2,48.8-0.2,48.8c-0.1,11.3-1.5,19.1-1.5,19.1c-1.4,10.8,2.3,1.5,2.3,1.5
		c3.7-10.5,13.9-15.4,13.9-15.4c0-6.8,2.4-42.1,2.4-42.1l2.2-9.3c14.8-41.5,25.9-19.5,25.9-19.5c1.9,25.2-12.7,23.6-12.7,23.6
		c-8-3.1-8-3.1-8-3.1l-7.4,8.2c1.7,6.9,14.2,9,14.2,9c12.4,1.4,23.6-27.2,23.6-27.2C794.4,513.4,780.7,507.2,780.7,507.2z"/>
	<path fill="#FFFFFF" d="M519.9,562.9c-6.3-6.2-21.2-2.5-21.2-2.5c-5.3,1.2-8.6-7.4-8.6-7.4c5.6-6.2,28-20.8,28-20.8
		c-8.3-0.1-13.8-3.7-13.8-3.7c-7.1-3.6-3.4-12-3.4-12c-0.8,3-21.9,10.4-21.9,10.4c-13.4,4.3-13.4,24.6-13.4,24.6
		c-4.9,8.3-3.7,7.4-3.7,7.4c4.9-0.7,7.6,2.1,7.6,2.1c2.8,3.6,16.4,18.8,16.4,18.8c5.8-4.2,22.9-13.2,22.9-13.2
		c7.2-4.7,12,3.3,12,3.3C522.7,566.8,519.9,562.9,519.9,562.9z M491.5,532.7c0,0,1.3,6.4,6.1,6.4L487,547
		C487,547,478,539.1,491.5,532.7z"/>
	<path fill="#FFFFFF" d="M572.8,572.1c0,0-0.6,0.1,2.1-2.9l-0.1,1.5L572.8,572.1z"/>
	<path fill="#FFFFFF" d="M679.5,148c0,0,2.3-1.8,3,2.2c0,0,3.5,21.5,6.5,24.8c0,0,5.8,17.5,1.4,32.1c0,0-1.4,12.8-1,14.1
		c0,0-0.6,6.3-1.5,8.3c0,0-0.4,1.8-0.1,3.6c0,0-0.6,49.9-1.5,50.8c0,0-4.1,22-2.8,34.3c0,0,0.1,9.9-1.6,14.3c0,0-4.2,41-2.8,48.4
		c0,0-1.6,14.7-1.9,16.2c-0.3,1.5-2,9.3-2,9.3s-0.2,14.9,0.1,18.2c0,0-1.4,14.7-2.2,17c0,0-2.9,50.8-3.2,52.6
		c-0.3,1.8-0.3,1.8-0.3,1.8s-2.5,23.3-2.4,26.3c0,0-0.2,20-2.2,26.3c0,0-2.7,22.1-4.4,24.5c0,0-2.2,13.5-2.5,15.9
		c0,0-5.2,41.6-6.3,45.8c0,0-2.5,14.1-2.2,16.4l-3.1,13.5c0,0-2.9,19.6-4.2,23.9l-9.4,62.5c0,0-2.5,11.1-3.1,13.5
		c0,0-1.1,9.3-1.7,9.9c0,0-2.5,9.6-1.9,10.8c0,0-0.3,0.9-1.7,3c0,0-3.6,18.2-6.2,18c0,0-2-2.4,0-5.4c0,0,4.5-15.3,4.3-16.7
		c0,0,1.1-6.9,1.7-8.1c0,0,1.5-7,1.5-7.8l1.1-7.6c0,0,4.1-30.1,3.5-33.9c0,0,2.3-23.3,3-25.3c0,0,1.5-16.8,3-20.3
		c0,0,2.2-11.8,2.2-12.6c0,0,1.9-10.2,2.4-10.8c0,0,0.6-12.7,0.4-14.2c0,0,0.8-15.1,1.5-15.6c0,0,3.2-22.6,4.2-23.6
		c0,0,3.9-20.8,3.8-21.7c0,0,0.1-10.8,4.1-24.8c0,0,0,0,0-5.4c0,0,3.7-14.8,4.1-23l-0.7-28.7l0.5-7.5c0,0,1.4-16.7,1.8-17.5
		l1.7-24.1l-0.3-8.2c0,0,0-5.2,2.1-14.7c0,0,0.4-14.2,1.2-14.4c0,0,0.2-9,1.4-10l0.1-8.1c0,0,1.1-21.1,1.9-25.1l2.2-23.6l3.1-37.1
		c0,0,1.6-21.5,2.2-22.6c0,0,2.2-24.8,1.7-32.6c0,0,2.7-41.9,3.5-42.5c0,0-0.3-0.6,1.3-5.1c0,0,4.1-16.9,0.5-25
		c0,0-2.7-4.6-2.3-10.2c0,0-1.6-8.4-2.2-9.7C678.7,163.1,678.5,149.5,679.5,148z"/>
	<path fill="#FFFFFF" d="M38.9,535.4c0,0,41.3-9.6,54.4-11.1c0,0,16-2.3,18.5-4.3c0,0,3.8-0.5,6.4-0.5c0,0,15.7-2.6,17.7-3.3
		c0,0,2.7-0.4,5.6,0c0,0,11.4-1.3,12.2-1.9c0,0,25.4-1.8,26.9-1.7c0,0,5.7,0.9,7.3-0.1c0,0,55-5.1,59.1-3.5c0,0,16.5,1.4,24.5-0.4
		c0,0,54.3-4.1,57.4-4c0,0,36.6-1,38.2-1.5c0,0,11.3,0.1,13.7-0.1c0,0,7.6-0.6,10.8-1.9c0,0,2.9-0.4,5.8,0c0,0,9.4-1,10.4-1.9
		c0,0,15.5-1.4,18.2-0.8c0,0,1.6-0.4,3.1-1c0,0,3.4,0,4.8,0c0,0,20.1-0.2,21.1-0.1c0,0,4-0.6,5.3-0.1c1.3,0.5,0.6-0.2,0.6-0.2
		s2-2.2,5.8-2c0,0,15.4-1.1,19.4-3.2c0,0,19.9-2.4,25.1-2.5l27.8-2.3c0,0,3.9-0.6,5-0.7c0,0,2.6-1.2,3.3-1.2c0,0,9.3-0.5,13.5-3.8
		c0,0,3,0,5.6,0c0,0,5.1-0.6,6.1-1.6c0,0,0.9-0.4,2.3,0c0,0,43.7-10.9,43.9-11.5c0.1-0.6,8.7,0,8.7,0l36.3-2.6l10.3,0
		c0,0,12.1,0.7,15.1,1.4c0,0,16.4,0.2,18.2-0.1l4.9,1l7.1,1.4c0,0,7.1,0.5,9.8,1.2c0,0,8.3,1.8,9.3,1.5c0,0,32.1,5.7,33.8,6.7
		c0,0,3-0.4,3.4-0.9c0,0,7.6,0.8,10,2.1l40.6,4.1c0,0,13.8,1.4,18.8,0.9c0,0,53.8,7.2,55.8,6.9l31.5,3.6l25.1,0.5
		c0,0,24,0.2,27.4-0.1c0,0,9.7,1,13.1,1.9c0,0,6.3,1.3,9.1,1.1c0,0,9,0.5,16.3,5.2c0,0,3,1,5,0.6l45.5,5.5c0,0,8-0.2,9.3-0.3
		c0,0,6.8,0.7,7.8,1.2l44-1.6c0,0,11.7-1.6,13.5-3.8c0,0,7.5-0.9,10.8-0.8c0,0,3.3-0.7,3.4-1.4c0,0,1.1,0.1,2.9,1
		c0,0,30.9,2.4,32.8,3.3c0,0,10.3,0.7,12.7,0.7c0,0,30.1,3,31,2.8c0,0,11.1,1.4,13.1,2.5c0,0,10.1,1.7,11,1.7c0,0,6.1,1.7,7.6,2.5
		c0,0,8.1,1.7,8.9,1.8c0,0,14.1,7.4,14.6,7.9c0.4,0.6,0,2.3,0,2.3l-2.9,0c0,0-7.8-2.8-8.9-3.5c0,0-5-2.5-6.7-2.5
		c0,0-13.8-3.5-14.4-4.2c0,0-12.5-1.2-12.6-1.9c0,0-7.4-2.5-11.7-2.1c0,0-10.7,0.2-11.4-0.4c0,0-22.3-4.6-28.5-2c0,0-2-0.3-2.6-0.4
		c0,0-8.3-2.5-13.3-1.6c0,0-3.7,0.5-5.6,0.1c0,0-21.7-0.8-30.9,1c0,0-19.4,3.3-21.3,3.8c0,0-5.7,0.7-7.6-0.2c0,0-5.9-0.2-9.8,0.3
		c0,0-22.7,0-23.7-0.3c0,0-9.4,0-9.6-0.4c0,0-7,0.9-12.1-0.9c0,0-5.3-0.7-7.9-0.6c0,0-6.1-1.2-11-1c0,0-9.5-0.5-11.8-1.5
		c0,0-4.2-0.1-4.6-0.1c-0.4,0-1.3-1.2-15.5-3.1c0,0-7.8-1.9-17.8-1.7c0,0-11.7-0.9-12.3-1.3c0,0-24.9-0.7-28.7-1.6l-28.1-0.7
		c0,0-8.1-0.4-9.5-0.9c0,0-5.2-1.3-8-0.9c0,0-26.4-2.3-27.6-3.3c0,0-8.8-1.6-13.2-0.8c0,0-2.5-0.3-3.4-0.6c0,0-13.9-2.3-23.7,0
		c0,0-4.5-0.1-5.8-0.7c0,0-24.2-3.3-25.7-4.7c0,0-13.5-2.6-18.9-1.9c0,0-27.5-1.4-29.6-2.9l-19.7-4.1l-22.5-2.6l-5.8-0.8
		c0,0-33.4-3.6-41-3.2l-9.9,0.2c0,0-18.7,0.5-21.9,1.6l-15.5,1.5l-5.8,0.5c0,0-6.3-0.4-6.9,0.3c0,0-12.4,5.6-19.9,6.7
		c0,0-25.9,6.1-42.1,8.5c0,0-16.8,2.1-18.2,1.5l-41.7,4.7c0,0-22.4,2.1-24.1,2.9l-16.2,1.8l-13,2.2l-3.6-0.1c0,0-25-1.6-26.3-0.8
		c0,0-16.9,2.5-19.2,3.3c0,0-9.2,2.2-17.1,1.4c0,0-13.1-0.7-16.2,0.8c0,0-16-0.1-16.6-0.5c0,0-18.9-0.6-26.1,1.7l-29.9,2.8
		c0,0-3.6,0.4-4.4,0.9c0,0-38.7,0.3-41.1-0.7c0,0-28.3,0.3-29.8,1.8c0,0-9.4,0.7-10.5,0.2c0,0-12,1.3-19.4,1.4l-16.1,1.3l-20.3,0.5
		c0,0-20.7,3.1-21,3.1c0,0-22.9,4.4-31.1,4c0,0-9.6,1.5-10.4,2c0,0-5.5,0.7-6.3,0.6c0,0-24.4,4-29.2,7
		C41.9,537.8,38.7,538.5,38.9,535.4z"/>
	<path fill="#FFFFFF" d="M618.7,468.1c0,0,3.3-17.8,5.9-20.4c0,0,11.9-12.7,13.2-14.5l1.6-0.7c0,0,12.3-8.4,14-8.4
		c0,0,2.2,0.1,3.2-1.1c0,0,2-0.3,3.2,0c0,0,1.9,0.8,3.7-0.2c0,0,4.3-2.4,4.6-2.3c0.3,0.1,0.3,0.1,0.3,0.1l10.3,1.6l1.1,0.5l2.5,0.2
		c0,0,2,0.7,2.3,1.3c0,0-4.7-1.5,7.3,1.7c0,0,1.9,2.4,2.9,2.4c0,0,11.1,8.4,12.6,9.3c0,0,8.9,10.7,9.6,14.3c0,0,2.1,17,1.8,18
		c0,0-1.1,19.9-1.9,20l-0.1,1.4c0,0-2.7,4.8-2.8,5.5c0,0-11.2,16.9-30.1,23.3c0,0-9.7,1.5-10.8,1.7l-9.3,0.1l-5.7-0.5
		c0,0-1.7-1.1-2.4-0.9c0,0-5.9,0.5-11.2-3.2c0,0-4.9-3.7-9-3.8c0,0-1.7,0.1-2.4-1.6c0,0-2.5-5.4-5.3-6.5c0,0-7.3-13.1-7.4-15.3
		c0,0-2.1-9.2-1.5-13.2l0.8,0.3l8.2,0.1c0,0-0.5,3.9-0.2,4.7c0,0,1.3,3.6,1.3,4.8l1.4,5.6c0,0,3.7,7.4,5.3,6.8c0,0,1.2,1,1.6,1.9
		c0,0,2.2,4.7,4.4,5.8c0,0,2.9,2.3,3.4,3c0,0,1.5,0.8,3.9,0.5c0,0,2.1,0.6,2.6,1.3c0,0,3.4,2.4,9.8,2.4l9.7,0.5c0,0,5.8-0.2,9.2-1.2
		c0,0,6.9-1.6,7.2-2.2c0.2-0.5,2-1.7,2-1.7l2.8-0.3l4-5.3l4.3-4.2c0,0,7.9-7.2,11.6-22.4l-0.8-9.5l-1.8-12c0,0-3.3-5.2-3.6-5.9
		c0,0-4.8-8-9.1-9.5c0,0-5.7-3.8-6.1-4.7l-6.9-4.3c0,0-7.1-1.1-9.2-0.3l-7.9-0.3c0,0-6.1,0.1-6.8,1.1c0,0-5.4,1.1-6.2,0.8
		c0,0-3,0.5-3.4,1.6c0,0-21.7,15.4-22.7,28.7c0,0-0.4,5.1-0.2,5.8l-7.4,1.1l-1.5-0.1L618.7,468.1z"/>
	<path fill="#FFFFFF" d="M62,411c0,0-9-45.8,19.6-57.4c0,0,23.9-8.1,36.9,16.9c0,0,8.6,18.3,8,52c0,0,9.3-18.7,9-35
		c0,0-0.6-35.2,36.4-33c0,0,2.8,23.2,34.3,22.2c0,0-27.8,20.4-34.9,36.8c0,0,45.4-4.9,47.2,25.3c0,0,3.1,57.6-66.4,57.7
		c0,0-25.9,1.5-35.8-10.2c0,0,0.6-21.3,16.7-38c0,0-14.4,25.6,10.7,30.8c0,0,36.8,12.1,50.1-15c0,0,12-32.4-26.6-34.6h-25.9l0.6-3.1
		c0,0,35.8-27.2,37.7-39.5c0,0-18.4-2.5-25.8-11.8l-0.5,2.9c0,0-11.4,54-28.7,69.5c0,0-1.9,7.1-5.6,12.4c0,0-28.6,52.2-58.5,7.7
		l-2-3.4c0,0,13.3,15.8,23.5,12.7c0,0,17.3-1.5,17.3-42.3c0,0-2.5-55-12.1-61.2C87.3,373.3,65.8,359.6,62,411z"/>
	<path fill="#FFFFFF" d="M377.1,463.4l-1.6-35.9c6-5.3,14.1-16.7,14.1-16.7l2.2-4.1c-8.1,7.3-25.3,5.5-25.3,5.5
		c-22-3.5-26.2-17.2-26.2-17.2c-14.2,19.8-38.3,26.2-38.3,26.2c-12.7,39.1,13.4,69.5,13.4,69.5c8.6-23.6,36-35.2,36-35.2l4.5,31.3
		l48.6-28.2L377.1,463.4z M351,444.2c-11.6,4.9-22.5,13-22.5,13c-10.9-13.9-5.1-33.7-5.1-33.7c7.4,6.1,27.5,8.7,27.5,8.7V444.2z"/>
	<path fill="#FFFFFF" d="M415.6,409.4c0,0,18.9-3.6,25.7-12.3c0,0,4.4-7.2,4.6-14.4c0,0,6.7,20.7,27.3,21.8l4.8-0.2l3.2-0.1
		l-2.3,1.9c0,0-17.9,15.9-31.7,13c0,0-9.4-0.8-14.2-7.7c0,0-3.9,8.5-0.9,20.4c0,0,4.3,23.6,23.2,23.5c0,0,24.7-4.4,24.9-17.9l0,0
		c0,0,3.1,8.6-1.4,15.3c0,0-6.3,12.4-30.3,19.8c0,0-8.4,2.8-10.9,7c0,0-33.8-31.3-31-45.4C406.5,434.1,409.7,419.5,415.6,409.4z"/>
	<path fill="#FFFFFF" d="M496.9,475l26.6-19v-21.3c0,0,28.9-14,29.2,22.5c0,0-0.2,7.2-5.6,10.7l42.8-21.4l0,0c0,0-13.3,3.1-17.1-9.5
		c0,0-5.6-17.8-20.4-18.5c0,0-12.5-0.2,27.6-15.9c0,0-0.3-0.4-2-1.8l0,0l-22.2-20.5c0,0-23.2,11.1-28.4,13.9c0,0-1.1-0.6,1.2,0.8
		c0,0,16.9,11.6,17.1,13.2l-20.2,13.9c0,0-2.1,3.7-2.3-24.3c0,0-0.7-53,0.8-58.3c0,0-0.8-7.6,13.8-20.6l22.5-14.9
		c0,0-60.2,17.6-62.3,37.8c0,0,0.2,28,1.6,51.9c0,0,0.9,37,1.6,41.7C501.3,435.1,501.7,471.5,496.9,475z"/>
	<path fill="#FFFFFF" d="M860.2,362.4c0,0-7.4-18.8,4.9-39.4c0,0-34.4-18.7-52.2-10.2c0,0-32.1,12.3-33.4,49.4c0,0,0,21.2,11.6,36.8
		c0.3,0.4,0.5,0.7,0.8,1.1l15.6,9.7c0,0-22.6-21.7-20.4-46.4c0,0,2.2-26.2,27.8-32.1c0,0,24.4-6.6,41.7,26.9
		C856.8,358.2,860.9,365.4,860.2,362.4z"/>
	<path fill="#FFFFFF" d="M791.9,328.9c0,0-27.5-13.1-40,33c0,0-20.9,65.8,40,91.7c0,0,20.7,7.9,40.4,1.4c0,0,20.3-5.4,29.2-22.4
		l-9.6-18.5c0,0,3.1,35.8-34.9,25.9c0,0-38.5-8.2-43.8-60.8C773.1,379.3,769.2,343.5,791.9,328.9z"/>
	<path fill="#FFFFFF" d="M946.7,381.7c-19.8-2.8-21.3-14.2-21.3-14.2l-1.7,1.8c-1.5,7-25.9,19.9-25.9,19.9
		c-34.8,25.6-12.5,51.9-12.5,51.9c15.8,16,34.3,24.8,34.3,24.8c7.6,4.3,10.8,10,10.8,10c2.5,3.4,0-5.9,0-5.9
		c-2.4-15.7,18.2-21.2,18.2-21.2c22.5-8,23.2-29.3,23.2-29.3C971.7,387.6,946.7,381.7,946.7,381.7z M941.8,424.7
		c0,0-0.5,15.3-3.5,15.5c0,0-16.6,0-25.9-13.7c0,0-7.5-9.3-5.2-26.3c0,0,1.4-6,10.4-4.9C917.7,395.3,945.1,396.4,941.8,424.7z"/>
	<path fill="#FFFFFF" d="M989.6,345c0,0,0-19.6,12.2-27.5l43-21.9l-25.3,29.3c0,0-5.9,5.6-5.3,13.6l1.2,98.5c0,0-0.2,16.2,6.5,15.4
		c0,0,12.7-0.3,18.5-9.6c0,0-0.5,15.1-12,19.4c0,0-26.9,10.5-23.8,24.7c0,0-2.8-16.1-15.1-35.5c0,0,0.8-6.6,0-21.9V345z"/>
	<path fill="#FFFFFF" d="M236.8,377.3c0,0,0-16.7,11.5-23.4l40.4-18.7l-23.8,25c0,0-5.5,4.7-4.9,11.6l1.2,83.9
		c0,0-0.1,13.8,6.1,13.1c0,0,11.9-0.3,17.4-8.2c0,0-0.4,12.9-11.3,16.6c0,0-25.2,8.9-22.3,21c0,0-2.6-13.7-14.2-30.2
		c0,0,0.7-5.6,0-18.7V377.3z"/>
	<path fill="#FFFFFF" d="M1052.6,352.4c0,0,0-19.6,12.2-27.5l43-21.9l-25.3,29.3c0,0-5.9,5.6-5.2,13.6l1.2,98.5
		c0,0-0.2,16.2,6.5,15.4c0,0,12.7-0.3,18.5-9.6c0,0-0.5,15.1-12,19.5c0,0-26.9,10.5-23.8,24.7c0,0-2.8-16.1-15.1-35.5
		c0,0,0.8-6.6,0-21.9V352.4z"/>
	<path fill="#FFFFFF" d="M791.3,399.1"/>
	<polygon fill="#FFFFFF" points="808.2,410.5 790.7,399.1 790.7,400.4 795.1,406.4 	"/>
	<path fill="#FFFFFF" d="M767.8,333.2c0,0,3.7-6.7,27.4-8.1l-3.4,3.8L767.8,333.2z"/>
	<path fill="#FFFFFF" d="M568.6,551.8c0,0-0.6,0.1,2-2.9l-0.1,1.5L568.6,551.8z"/>
</g>
</svg>
